<?xml version="1.0" encoding="utf-8"?>
<!-- Generator: Adobe Illustrator 26.5.0, SVG Export Plug-In . SVG Version: 6.00 Build 0)  -->
<svg version="1.1" id="Layer_1" xmlns="http://www.w3.org/2000/svg" xmlns:xlink="http://www.w3.org/1999/xlink" x="0px" y="0px"
	 viewBox="0 0 512 512" style="enable-background:new 0 0 512 512;" xml:space="preserve">
<style type="text/css">
	.st0{fill:#1A1A1A;}
	.st1{fill:#76B900;}
	.st2{fill:#FFFFFF;}
</style>
<g id="XMLID_1_">
	<path id="XMLID_5_" d="M512,0.42H0v421.66l57.93,58.07h453.93L512,0.42 M512,0.42L512,0.42"/>
	<polygon id="XMLID_6_" class="st0" points="193.44,0.42 186.42,0.42 0.14,186.7 0.14,193.72 	"/>
	<polygon id="XMLID_7_" class="st0" points="211.25,0.42 204.24,0.42 0,204.52 0,211.53 	"/>
	<polygon id="XMLID_8_" class="st0" points="229.07,0.42 222.05,0.42 0,222.33 0,229.35 	"/>
	<polygon id="XMLID_9_" class="st0" points="246.88,0.42 239.87,0.42 0,240.29 0,247.3 	"/>
	<polygon id="XMLID_10_" class="st0" points="264.84,0.42 257.82,0.42 0,258.1 0,265.12 	"/>
	<polygon id="XMLID_11_" class="st0" points="282.65,0.42 275.64,0.42 0,275.92 0,282.93 	"/>
	<polygon id="XMLID_12_" class="st0" points="300.47,0.42 293.45,0.42 0.14,293.59 0.14,300.61 	"/>
	<polygon id="XMLID_13_" class="st0" points="318.28,0.42 311.27,0.42 0,311.41 0,318.42 	"/>
	<polygon id="XMLID_14_" class="st0" points="336.1,0.42 329.08,0.42 0,329.22 0,336.24 	"/>
	<polygon id="XMLID_15_" class="st0" points="354.05,0.42 346.9,0.42 0.14,346.9 0.14,353.91 	"/>
	<polygon id="XMLID_16_" class="st0" points="371.87,0.42 364.85,0.42 0.14,364.71 0.14,371.73 	"/>
	<polygon id="XMLID_17_" class="st0" points="389.68,0.42 382.67,0.42 0.14,382.53 0.14,389.54 	"/>
	<polygon id="XMLID_18_" class="st0" points="407.5,0.42 400.48,0.42 0.14,400.34 0.14,407.5 	"/>
	<polygon id="XMLID_19_" class="st0" points="1.68,423.63 425.31,0.42 418.3,0.42 0,418.3 0,422.08 	"/>
	<polygon id="XMLID_20_" class="st0" points="443.27,0.42 436.25,0.42 7.01,429.1 10.52,432.6 	"/>
	<polygon id="XMLID_21_" class="st0" points="461.08,0.42 454.07,0.42 15.99,437.94 19.5,441.58 	"/>
	<polygon id="XMLID_22_" class="st0" points="478.9,0.42 471.88,0.42 24.83,446.91 28.34,450.42 	"/>
	<polygon id="XMLID_23_" class="st0" points="496.71,0.42 489.7,0.42 33.81,455.89 37.31,459.4 	"/>
	<polygon id="XMLID_24_" class="st0" points="507.51,0.42 42.64,464.73 46.15,468.23 512,3.09 512,0.42 	"/>
	<polygon id="XMLID_25_" class="st0" points="51.62,473.71 55.13,477.21 512,20.9 512,13.89 	"/>
	<polygon id="XMLID_26_" class="st0" points="62.84,480.3 69.86,480.3 512,38.72 512,31.7 	"/>
	<polygon id="XMLID_27_" class="st0" points="80.66,480.3 87.67,480.3 512,56.53 512,49.52 	"/>
	<polygon id="XMLID_28_" class="st0" points="98.61,480.3 105.63,480.3 512,74.35 512,67.33 	"/>
	<polygon id="XMLID_29_" class="st0" points="116.29,480.3 123.44,480.3 512,92.16 512,85.15 	"/>
	<polygon id="XMLID_30_" class="st0" points="134.24,480.3 141.26,480.3 512,109.97 512,102.96 	"/>
	<polygon id="XMLID_31_" class="st0" points="152.06,480.3 159.07,480.3 512,127.79 512,120.78 	"/>
	<polygon id="XMLID_32_" class="st0" points="169.87,480.3 176.89,480.3 512,145.6 512,138.59 	"/>
	<polygon id="XMLID_33_" class="st0" points="187.69,480.3 194.84,480.3 512,163.42 512,156.41 	"/>
	<polygon id="XMLID_34_" class="st0" points="205.64,480.3 212.66,480.3 512,181.23 512,174.22 	"/>
	<polygon id="XMLID_35_" class="st0" points="223.46,480.3 230.47,480.3 512,199.05 512,192.04 	"/>
	<polygon id="XMLID_36_" class="st0" points="241.27,480.3 248.28,480.3 512,217 512,209.85 	"/>
	<polygon id="XMLID_37_" class="st0" points="259.09,480.3 266.1,480.3 512,234.82 512,227.8 	"/>
	<polygon id="XMLID_38_" class="st0" points="277.04,480.3 284.05,480.3 512,252.63 512,245.62 	"/>
	<polygon id="XMLID_39_" class="st0" points="294.86,480.3 301.87,480.3 512,270.45 512,263.43 	"/>
	<polygon id="XMLID_40_" class="st0" points="312.67,480.3 319.68,480.3 512,288.26 512,281.25 	"/>
	<polygon id="XMLID_41_" class="st0" points="330.49,480.3 337.5,480.3 512,306.08 512,299.06 	"/>
	<polygon id="XMLID_42_" class="st0" points="348.3,480.3 355.31,480.3 512,323.89 512,316.88 	"/>
	<polygon id="XMLID_43_" class="st0" points="366.26,480.3 373.27,480.3 512,341.71 512,334.69 	"/>
	<polygon id="XMLID_44_" class="st0" points="384.07,480.3 391.08,480.3 512,359.52 512,352.51 	"/>
	<polygon id="XMLID_45_" class="st0" points="401.88,480.3 408.9,480.3 512,377.34 512,370.32 	"/>
	<polygon id="XMLID_46_" class="st0" points="419.7,480.3 426.71,480.3 512,395.15 512,388.14 	"/>
	<polygon id="XMLID_47_" class="st0" points="437.51,480.3 444.67,480.3 512,412.97 512,405.95 	"/>
	<polygon id="XMLID_48_" class="st0" points="455.47,480.3 462.48,480.3 512,430.78 512,423.77 	"/>
	<polygon id="XMLID_49_" class="st0" points="473.28,480.3 480.3,480.3 512,448.6 512,441.58 	"/>
	<polygon id="XMLID_50_" class="st0" points="491.1,480.3 498.11,480.3 512,466.41 512,459.4 	"/>
	<polygon id="XMLID_51_" class="st0" points="508.91,480.3 511.86,480.3 512,477.21 	"/>
	<polygon id="XMLID_52_" class="st0" points="0.14,168.89 0.14,175.9 175.62,0.42 168.61,0.42 	"/>
	<polygon id="XMLID_53_" class="st0" points="0.14,151.22 0.14,158.23 157.95,0.42 150.93,0.42 	"/>
	<polygon id="XMLID_54_" class="st0" points="0.14,133.54 0.14,140.55 140.27,0.42 133.26,0.42 	"/>
	<polygon id="XMLID_55_" class="st0" points="0.14,115.87 0.14,122.88 122.6,0.42 115.59,0.42 	"/>
	<polygon id="XMLID_56_" class="st0" points="0.14,98.05 0.14,105.07 104.78,0.42 97.77,0.42 	"/>
	<polygon id="XMLID_57_" class="st0" points="0.14,80.38 0.14,87.39 87.11,0.42 80.1,0.42 	"/>
	<polygon id="XMLID_58_" class="st0" points="0.14,62.56 0.14,69.58 69.3,0.42 62.28,0.42 	"/>
	<polygon id="XMLID_59_" class="st0" points="0.14,44.89 0.14,51.9 51.62,0.42 44.61,0.42 	"/>
	<polygon id="XMLID_60_" class="st0" points="0.14,27.07 0.14,34.09 33.81,0.42 26.79,0.42 	"/>
	<polygon id="XMLID_61_" class="st0" points="0.14,9.4 0.14,16.41 16.13,0.42 8.98,0.42 	"/>
	<polygon id="XMLID_62_" class="st1" points="50.78,491.38 0,440.46 0,469.08 42.36,511.58 512,511.58 512,491.24 	"/>
	<polygon id="XMLID_63_" class="st2" points="80.52,94.54 62.14,66.49 62.14,94.4 56.11,94.4 56.11,54.71 61.72,54.71 80.1,82.62 
		80.1,54.71 86.13,54.71 86.13,94.54 	"/>
	<polygon id="XMLID_64_" class="st2" points="109.27,94.54 104.64,94.54 91.6,54.71 97.77,54.71 106.89,83.6 116.15,54.71 
		122.46,54.71 	"/>
	<rect id="XMLID_65_" x="127.89" y="54.8" class="st2" width="6.03" height="39.7"/>
	<path id="XMLID_68_" class="st2" d="M168.61,90.76c-2.52,2.52-6.17,3.79-10.24,3.79h-13.89v-39.7h13.89
		c4.07,0,7.72,1.26,10.24,3.79c4.35,4.35,4.07,10.1,4.07,15.85C172.54,80.1,172.82,86.55,168.61,90.76z M164.4,62.84
		c-1.68-1.82-3.93-2.67-6.73-2.67h-7.29v28.9h7.29c2.81,0,5.05-0.84,6.73-2.67c2.1-2.24,2.1-6.59,2.1-12.06
		C166.51,68.87,166.51,65.23,164.4,62.84z"/>
	<rect id="XMLID_69_" x="181.52" y="54.85" class="st2" width="6.03" height="39.7"/>
	<path id="XMLID_72_" class="st2" d="M220.79,94.54l-2.67-8h-15.71l-2.81,8h-6.45l14.59-39.7h4.91l14.59,39.84L220.79,94.54z
		 M210.27,63.82L204.1,81.5h12.2L210.27,63.82z"/>
	<path id="XMLID_77_" class="st2" d="M224.16,58.49v-0.98h0.7c0.42,0,0.84,0,0.84,0.42s-0.28,0.56-0.7,0.56L224.16,58.49
		 M224.16,59.2h0.42l0.98,1.82h1.12l-1.12-1.96c0.56,0,1.12-0.28,1.12-1.12c0-0.98-0.7-1.26-1.82-1.26h-1.68v4.35h0.98V59.2
		 M229.07,58.92c0-2.52-1.96-4.07-4.21-4.07c-2.24,0-4.21,1.54-4.21,4.07s1.96,4.07,4.21,4.07
		C227.1,62.98,229.07,61.44,229.07,58.92 M227.8,58.92c0,1.82-1.4,3.09-2.95,3.09l0,0c-1.68,0-2.95-1.26-2.95-3.09
		c0-1.82,1.4-3.09,2.95-3.09C226.4,55.83,227.8,57.09,227.8,58.92z"/>
	<path id="XMLID_82_" class="st2" d="M448.46,114.88v-1.96h1.26c0.7,0,1.68,0,1.68,0.84s-0.42,1.12-1.26,1.12L448.46,114.88
		 M448.46,116.29h0.84l1.96,3.51h2.1l-2.1-3.51c1.12-0.14,2.1-0.56,2.1-2.1c0-1.82-1.26-2.52-3.51-2.52h-3.09v8.14h1.82v-3.51
		 M457.57,115.59c0-4.77-3.65-7.57-7.86-7.57s-7.86,2.81-7.86,7.57c0,4.77,3.65,7.57,7.86,7.57
		C453.93,123.16,457.57,120.5,457.57,115.59 M455.33,115.59c0,3.51-2.52,5.89-5.61,5.89l0,0c-3.09,0-5.61-2.38-5.61-5.75
		c0-3.51,2.52-5.75,5.61-5.75C452.8,109.83,455.33,112.08,455.33,115.59z"/>
	<path id="XMLID_83_" class="st2" d="M107.73,133.26v26.09V133.26H80.94v11.36h14.45v9.68c0,1.68-1.4,3.09-3.09,3.09H74.91
		c-0.7,0-1.68-0.42-2.24-0.84l-3.37-3.37c-0.56-0.56-0.98-1.54-0.84-2.24V123.3c0-1.68,1.4-3.09,3.09-3.09h34.09v-12.34H66.35
		c-5.75,0-10.38,4.63-10.38,10.38v38.01c0,0.7,0.42,1.68,0.84,2.24l10.52,10.52c0.42,0.56,1.54,0.98,2.24,0.84h27.63
		c5.75,0,10.38-4.63,10.38-10.38L107.73,133.26z"/>
	<polygon id="XMLID_84_" class="st2" points="160.89,120.21 160.89,107.73 117.55,107.73 117.41,169.73 160.75,169.73 
		160.75,157.39 129.89,157.25 129.89,144.62 154.58,144.62 154.58,133.26 129.89,133.26 129.89,120.21 	"/>
	<polygon id="XMLID_85_" class="st2" points="435.13,120.5 435.13,108.01 391.79,108.01 391.79,170.01 435.13,170.01 435.13,157.67 
		404.13,157.53 404.13,144.76 428.96,144.9 428.96,133.54 404.13,133.54 404.13,120.36 	"/>
	<polygon id="XMLID_86_" class="st2" points="213.92,120.21 213.92,107.87 170.57,107.87 170.43,169.73 182.78,169.73 
		182.92,144.62 207.61,144.62 207.61,133.4 182.92,133.26 182.92,120.21 	"/>
	<path id="XMLID_89_" class="st2" d="M333.15,169.87l-13.47-25.11c4.63,0,9.4-5.05,9.4-10.1v-16.27c0-5.75-4.63-10.38-10.38-10.38
		h-37.17v61.86h12.34v-25.11h13.05l13.33,25.11H333.15z M294.01,120.36h19.64c1.68,0,3.09,1.4,3.09,3.09v7.01
		c0,1.68-1.4,3.09-3.09,3.09h-19.64V120.36z"/>
	<path id="XMLID_92_" class="st2" d="M261.61,107.87h-31c-5.75,0-10.38,4.63-10.38,10.38v41.24c0,5.75,4.63,10.38,10.38,10.38h31
		c5.75,0,10.38-4.63,10.38-10.38v-41.24C271.99,112.5,267.36,107.87,261.61,107.87 M259.51,154.3c0,1.68-1.4,3.09-3.09,3.09H235.8
		c-1.68,0-3.09-1.4-3.09-3.09v-31c0-1.68,1.4-3.09,3.09-3.09h20.62c1.68,0,3.09,1.4,3.09,3.09V154.3z"/>
	<path id="XMLID_93_" class="st2" d="M354.19,157.53c-1.68,0-3.09-1.4-3.09-3.09v-31c0-1.68,1.4-3.09,3.09-3.09h27.91v-12.34h-32.96
		c-5.75,0-10.38,4.63-10.38,10.38v41.24c0,5.75,4.63,10.38,10.38,10.38h32.96v-12.34L354.19,157.53z"/>
	<path id="XMLID_94_" class="st2" d="M107.59,208.17v26.09V208.17H80.8v11.22h14.45v9.68c0,1.68-1.4,3.09-3.09,3.09H74.77
		c-0.7,0-1.68-0.42-2.24-0.84l-3.37-3.37c-0.56-0.42-0.98-1.54-0.98-2.24v-27.63c0-1.68,1.4-3.09,3.09-3.09h34.09v-12.34H66.07
		c-5.75,0-10.38,4.63-10.38,10.38v38.01c0,0.7,0.42,1.68,0.84,2.24l10.52,10.52c0.42,0.56,1.54,0.98,2.24,0.84h27.63
		c5.75,0,10.38-4.63,10.38-10.38L107.59,208.17z"/>
	<polygon id="XMLID_95_" class="st2" points="222.33,244.78 200.73,211.25 219.25,182.92 204.94,182.92 193.58,200.31 
		182.36,182.92 168.05,182.78 186.42,211.25 164.68,244.78 178.99,244.78 193.58,222.33 208.17,244.78 	"/>
	<polygon id="XMLID_96_" class="st2" points="160.75,182.78 117.41,182.64 117.41,195.12 132.98,195.12 132.84,244.78 
		145.32,244.78 145.32,195.12 160.75,195.12 	"/>
	<path id="XMLID_97_" d="M345.35,389.68L345.35,389.68c-1.54-2.52-2.95-5.05-4.35-7.57l-0.14-0.14
		c-6.87-12.48-13.05-25.53-18.1-39.42c-2.1-5.61-3.93-11.22-5.61-16.97c-0.42,1.26-1.68,10.52-1.68,10.52
		c14.73,58.77,59.34,108.43,103.94,144.2h4.63C395.43,456.31,367.1,426.15,345.35,389.68z"/>
	<path id="XMLID_98_" d="M512,298.22c-2.38,0.28-4.77,0.42-7.29,0.7c-0.42,0-0.7,0.14-1.12,0.14c-1.12,0.14-2.38,0.28-3.51,0.56
		c-68.31,10.52-120.5,49.94-120.5,49.94s0.56,2.67,1.96,7.15c13.89-9.96,66.35-47.69,130.31-56.25v-2.24H512z"/>
	<path id="XMLID_99_" d="M236.22,409.18c-0.56,0.98-1.12,7.29-1.12,7.29c17.25,19.78,37.59,42.92,66.91,63.68h11.5
		C280.13,456.87,255.86,430.64,236.22,409.18z"/>
	<path id="XMLID_100_" d="M470.9,388.42c0,0.84-0.14,1.82-0.14,2.1c5.75-4.77,20.34-16.97,41.1-27.49v-1.82
		c-25.39,11.22-40.82,24.13-40.82,24.13S471.04,386.45,470.9,388.42z"/>
	<path id="XMLID_101_" d="M430.64,372.43c-0.28,1.26-1.4,6.73-1.26,8.56c0,0,9.68,41.38,43.48,70.42c-0.14-0.84-0.14-0.7-0.14-1.4
		c-26.93-27.91-37.73-61.72-40.82-73.36C431.34,375.09,430.92,373.69,430.64,372.43z"/>
	<path id="XMLID_102_" class="st1" d="M341.01,382.11c1.4,2.52,2.81,5.05,4.21,7.43v0.14c21.6,36.47,50.08,66.63,78.83,90.62h39.56
		c-53.3-40.54-75.75-102.54-82.06-123.44c-1.4-4.63-1.96-7.15-1.96-7.15s52.18-39.56,120.5-49.94c1.12-0.14,2.38-0.28,3.51-0.56
		c0.42,0,0.7-0.14,1.12-0.14c2.38-0.28,4.77-0.56,7.29-0.84v-29.46c-88.23-4.07-165.52,30.72-194.42,56.67l-0.14,0.14
		c1.68,5.75,3.51,11.5,5.61,17.11c5.05,13.89,11.08,26.93,18.1,39.42H341.01z"/>
	<path id="XMLID_103_" class="st1" d="M313.37,480.3h65.65c-31.42-24.69-59.48-54.29-79.54-85.71
		c-11.92,5.47-46.43,6.73-63.26,14.17l-0.14,0.42l0.14,0.14C255.86,430.64,280.13,456.87,313.37,480.3z"/>
	<path id="XMLID_104_" class="st1" d="M431.76,376.64c3.09,11.64,13.89,45.45,40.82,73.36l0.14,0.14
		c-2.95-32.54-2.24-54.15-1.82-61.72c0.14-1.96,0.14-3.09,0.14-3.09s15.43-12.91,40.82-24.13v-32.82
		c-26.51,8-54.57,21.6-81.22,44.05C430.64,372.43,431.06,373.97,431.76,376.64z"/>
</g>
</svg>
