<?xml version="1.0" encoding="utf-8"?>
<!-- Generator: Adobe Illustrator 24.1.1, SVG Export Plug-In . SVG Version: 6.00 Build 0)  -->
<svg version="1.1" id="Layer_1" xmlns="http://www.w3.org/2000/svg" xmlns:xlink="http://www.w3.org/1999/xlink" x="0px" y="0px"
	 viewBox="0 0 512 512" style="enable-background:new 0 0 512 512;" xml:space="preserve">
<g>
	<path d="M150.8,230.4v82.7h-26.3V209.2h54.3c23.1,0,30.9,16.3,30.9,31.1v72.8h-26.3v-72.7c0-6.3-3.2-10-10.9-10H150.8z
		 M329.8,229.2c-9.1,0-16,4.6-18.9,10.9c-1.7,3.5-2.5,7.3-2.5,11.2h40.5C348.4,240.1,343.3,229.2,329.8,229.2z M308.4,269.3
		c0,13.4,8.3,23.4,23.3,23.4c11.6,0,17.3-3.2,24.1-10l16.3,15.6c-10.3,10.2-21.3,16.5-40.6,16.5c-25.2,0-49.2-13.7-49.2-53.7
		c0-34.3,21-53.6,48.7-53.6c28.1,0,44.3,22.7,44.3,52.3v9.4L308.4,269.3L308.4,269.3z M260,312.9c-21.4,0-30.5-14.9-30.5-29.7V180.8
		h26.3v28.3h19.7v21.2h-19.7v51.2c0,6.1,2.8,9.4,9.1,9.4h10.7v21.9L260,312.9z M101.1,194.8H74.6v-25.2h26.5V194.8z M101.2,314.2
		c-19.8-1.9-26.6-13.9-26.6-27.8v-77.2h26.5L101.2,314.2L101.2,314.2z M417,311.9c-19.8-1.9-26.5-13.9-26.5-27.7V166.1H417V311.9
		L417,311.9z M509.7,183.2c-24-117.2-251.6-124.7-398.2-35.4v9.9c146.4-75.3,354.3-74.8,373.2,33c6.2,35.7-13.8,72.9-49.7,94.3v28
		C478.2,297.2,522.6,245.8,509.7,183.2L509.7,183.2z M243.2,388.2c-101.2,9.3-206.7-5.4-221.4-84.4c-7.2-39,10.7-80.3,34.1-106
		v-13.7C13.5,221.3-9.5,268.3,3.7,323.9c16.9,71.3,107.4,111.7,245.5,98.3c54.7-5.3,126.3-22.9,175.9-50.3v-38.7
		C380.1,360.2,305.3,382.4,243.2,388.2z M447.7,173.8c0-1.2-0.8-1.7-2.5-1.7h-1.7v3.7h1.7c1.7,0,2.5-0.5,2.5-1.7V173.8z
		 M450.2,182.9h-2l-0.4-0.3l-2.7-4.6l-0.4-0.2h-1.2v4.5l-0.5,0.5h-1.7l-0.5-0.5V171l0.8-1l3.2-0.1c3.2,0,5.2,0.9,5.2,4v0.2
		c0,1.9-1,2.9-2.4,3.4l2.7,4.7l0.1,0.3L450.2,182.9z M445.6,167.7c-4.8,0-8.7,3.9-8.7,8.7c0.1,4.8,4,8.8,8.8,8.8
		c4.8,0,8.7-3.9,8.7-8.7C454.3,171.7,450.4,167.7,445.6,167.7z M445.6,187.1c-5.8,0-10.6-4.7-10.6-10.5c0-5.8,4.8-10.6,10.6-10.6
		c5.7,0,10.6,4.7,10.6,10.6C456.2,182.4,451.3,187.1,445.6,187.1z"/>
</g>
</svg>
