<?xml version="1.0" encoding="utf-8"?>
<!-- Generator: Adobe Illustrator 26.3.1, SVG Export Plug-In . SVG Version: 6.00 Build 0)  -->
<svg version="1.1" id="Layer_1" xmlns="http://www.w3.org/2000/svg" xmlns:xlink="http://www.w3.org/1999/xlink" x="0px" y="0px"
	 viewBox="0 0 512 512" style="enable-background:new 0 0 512 512;" xml:space="preserve">
<style type="text/css">
	.st0{fill-rule:evenodd;clip-rule:evenodd;}
</style>
<g>
	<path class="st0" d="M234.13,267.11c0.13,51.18,0.28,138.11,0.41,205.69c92.52,12.51,185.04,25.41,277.4,39.2
		c0-80.67,0.1-160.99,0-237.75C419.35,274.25,326.78,267.11,234.13,267.11 M0,267.14v173.74c69.78,9.41,139.56,18.41,209.21,28.7
		c0.13-67.21-0.05-134.45-0.05-201.66C139.43,268.04,69.73,266.91,0,267.14 M0,72.79v173.25c69.78,0.17,139.56-0.88,209.34-0.8
		c-0.05-67.06-0.05-134.04-0.13-201.1C139.38,52.86,69.55,62.1,0,72.79 M512,242.48c-92.47,0.36-184.94,1.76-277.46,2.05
		c-0.05-68.16-0.05-136.25,0-204.35C326.88,26.08,419.43,12.81,511.95,0C512,80.85,511.95,161.62,512,242.48"/>
</g>
</svg>
